<?xml version="1.0" encoding="UTF-8"?>
<svg version="1.1" xmlns="http://www.w3.org/2000/svg" width="2133" height="625">
<path d="M0 0 C2.21354852 1.33543054 2.21354852 1.33543054 4.44140625 0.39453125 C6.47486531 -0.97511988 6.47486531 -0.97511988 8.33203125 -3.5078125 C21.56257829 -19.92644316 44.67799136 -29.88456708 65.1796875 -32.640625 C100.8039032 -36.15350594 138.47217937 -32.0138839 167.26953125 -8.9453125 C168.59986706 -7.94132823 169.93216917 -6.93991817 171.26953125 -5.9453125 C172.21699219 -6.780625 172.21699219 -6.780625 173.18359375 -7.6328125 C199.78183675 -30.32180365 233.7938016 -36.05977318 267.93359375 -33.3828125 C295.68264897 -30.78874352 316.9753848 -20.75380998 338.26953125 -2.9453125 C339.02234375 -3.43 339.77515625 -3.9146875 340.55078125 -4.4140625 C375.28862981 -26.33600577 414.28200102 -35.35750408 455.08203125 -36.5703125 C456.17726105 -36.60300232 456.17726105 -36.60300232 457.2946167 -36.63635254 C515.27980545 -38.29329851 575.19799421 -24.60140525 618.83203125 15.74609375 C619.63640625 16.50792969 620.44078125 17.26976562 621.26953125 18.0546875 C622.11515625 18.84746094 622.96078125 19.64023438 623.83203125 20.45703125 C626.40807469 22.9427561 628.8900266 25.37685689 631.26953125 28.0546875 C631.91863968 28.68444489 632.56774811 29.31420227 633.23652649 29.96304321 C641.53905398 39.24591417 640.45371478 49.56525532 640.3671875 61.3984375 C640.37512959 63.57597749 640.38529442 65.75351039 640.39756775 67.93103027 C640.41381555 72.48035273 640.40085424 77.0284169 640.36743164 81.57763672 C640.32744415 87.38538757 640.36410196 93.18969999 640.4232111 98.99718475 C640.45976324 103.48948099 640.45355655 107.9809668 640.43493462 112.4733429 C640.43146625 114.6134097 640.44146033 116.7535452 640.46562386 118.89347839 C640.63934871 137.62651505 640.63934871 137.62651505 634.94702148 144.70117188 C633.43553239 146.20193537 631.87849134 147.65893043 630.26953125 149.0546875 C628.93029626 150.38209294 627.5949832 151.7135191 626.26953125 153.0546875 C626.8728125 153.70695313 627.47609375 154.35921875 628.09765625 155.03125 C628.896875 155.90523437 629.69609375 156.77921875 630.51953125 157.6796875 C631.3084375 158.53820312 632.09734375 159.39671875 632.91015625 160.28125 C637.22295429 165.35092982 639.76181709 168.81684057 639.81784058 175.61109924 C639.83779083 176.91316818 639.85774109 178.21523712 639.8782959 179.5567627 C639.88008727 180.98779248 639.88141453 182.4188229 639.88232422 183.84985352 C639.89757851 185.36658856 639.91443543 186.88330821 639.93276978 188.40000916 C639.9765794 192.51199596 639.99424753 196.62368538 640.00442266 200.73587918 C640.01172275 203.31000272 640.02420977 205.88404918 640.03842545 208.45814323 C640.08739719 217.45333123 640.1135121 226.44828907 640.12060547 235.44360352 C640.12786383 243.8033473 640.18756521 252.16161698 640.27141464 260.5209108 C640.34103386 267.71613039 640.37170605 274.9108643 640.37309754 282.10641807 C640.37467681 286.39590394 640.39185057 290.68388917 640.44909286 294.97302437 C640.50182575 299.0146685 640.50567109 303.05358876 640.47378159 307.09542274 C640.47018047 308.56874333 640.48328237 310.04222712 640.51541901 311.51520157 C640.75840742 323.38800232 637.04813579 329.59510518 629.26953125 338.0546875 C627.78870922 339.80328698 626.30924313 341.55303711 624.83203125 343.3046875 C592.30253302 378.56871448 542.43535873 390.78484698 496.26953125 393.0546875 C441.45586437 394.83326075 386.32971047 385.70766065 339.26953125 356.0546875 C339.00527344 356.63992188 338.74101563 357.22515625 338.46875 357.828125 C330.545628 372.53880754 310.55429561 380.6828341 295.4375 385.234375 C261.41770593 394.85191116 221.64883512 392.18523534 190.421875 375.31347656 C184.9406193 372.10778755 180.10178464 368.15714309 175.26953125 364.0546875 C173.60620423 362.71719029 171.94063505 361.38245542 170.26953125 360.0546875 C169.57730469 360.67214844 168.88507813 361.28960937 168.171875 361.92578125 C143.23145538 383.51452393 113.06673806 391.88201815 80.24511719 389.93457031 C54.11209192 387.97615267 28.3033791 378.76610259 10.26953125 359.0546875 C6.30511386 360.48970513 2.99638958 362.39886865 -0.54296875 364.6796875 C-52.78777145 397.26647862 -124.78692138 400.15934128 -183.68359375 386.5625 C-203.55023624 381.71713736 -222.30353252 375.7053203 -240.35546875 366.0703125 C-241.31146973 365.56089111 -242.2674707 365.05146973 -243.25244141 364.52661133 C-245.11928559 363.52257952 -246.97875082 362.50467414 -248.82958984 361.47143555 C-249.67086426 361.01293213 -250.51213867 360.55442871 -251.37890625 360.08203125 C-252.12317871 359.66687256 -252.86745117 359.25171387 -253.63427734 358.82397461 C-256.15903905 357.89740529 -257.25995122 358.05685425 -259.73046875 359.0546875 C-262.04835653 361.1218185 -262.04835653 361.1218185 -264.35546875 363.6796875 C-283.09815172 382.88683929 -309.1865075 389.96721508 -335.35546875 390.3046875 C-369.5526493 390.32183238 -399.48286182 381.11279182 -424.0234375 356.78125 C-424.58675781 356.21148437 -425.15007812 355.64171875 -425.73046875 355.0546875 C-426.48070312 355.83972656 -427.2309375 356.62476563 -428.00390625 357.43359375 C-450.65435014 380.82563657 -479.76732016 389.5942587 -511.75439453 390.22094727 C-538.83437824 390.4867968 -564.01179027 384.04187121 -584.73046875 366.0546875 C-585.45363281 365.43207031 -586.17679688 364.80945313 -586.921875 364.16796875 C-607.89167074 344.63852261 -615.04319832 318.31162224 -619.73046875 291.0546875 C-619.82021973 291.60181396 -619.9099707 292.14894043 -620.00244141 292.71264648 C-623.92590093 316.10926654 -630.75522305 337.94020804 -646.73046875 356.0546875 C-647.17261719 356.63863281 -647.61476563 357.22257812 -648.0703125 357.82421875 C-662.25961897 376.24012714 -687.3415679 386.10607269 -709.73046875 389.0546875 C-710.56191406 389.16554688 -711.39335938 389.27640625 -712.25 389.390625 C-741.27539548 392.61083379 -772.89322664 388.1172299 -797.04296875 370.8046875 C-822.03586734 350.76934062 -834.70328446 323.78876036 -838.32411194 292.12838745 C-839.97842953 276.20359303 -839.86453617 260.22437577 -839.828125 244.234375 C-839.82625535 241.7938744 -839.82483403 239.35337342 -839.82383728 236.91287231 C-839.82005517 230.55087207 -839.81026267 224.18889537 -839.7991333 217.8269043 C-839.78882559 211.31038735 -839.78431979 204.79386653 -839.77929688 198.27734375 C-839.76863569 185.5364484 -839.75180996 172.79556921 -839.73046875 160.0546875 C-841.00289429 160.06029694 -842.27531982 160.06590637 -843.58630371 160.07168579 C-847.99132433 160.09110514 -851.94688903 159.41551189 -856.23046875 158.4296875 C-857.00801514 158.25219971 -857.78556152 158.07471191 -858.58666992 157.8918457 C-875.60801726 153.82005887 -891.57164353 146.78080981 -904.73046875 135.0546875 C-905.48972656 134.38953125 -906.24898437 133.724375 -907.03125 133.0390625 C-923.00983655 118.1367538 -932.54156374 95.25498305 -933.95288086 73.64990234 C-934.07028145 69.92792481 -934.11043889 66.21600799 -934.10546875 62.4921875 C-934.10525726 61.83438293 -934.10504578 61.17657837 -934.10482788 60.49884033 C-934.02038783 34.11432466 -925.45556207 11.8064168 -906.73046875 -6.9453125 C-905.99957031 -7.6878125 -905.26867187 -8.4303125 -904.515625 -9.1953125 C-886.16177287 -26.69470224 -859.98236695 -32.32832032 -835.46755981 -33.49972534 C-834.16307426 -33.56291641 -834.16307426 -33.56291641 -832.83223546 -33.62738407 C-823.53306701 -34.04564064 -814.24388506 -34.08622868 -804.93701172 -34.07470703 C-803.05196092 -34.07606698 -801.16691039 -34.0778502 -799.28186035 -34.08001709 C-794.2282715 -34.08452032 -789.1747034 -34.08283175 -784.12111425 -34.079638 C-778.79380589 -34.07707794 -773.46649912 -34.07946191 -768.13919067 -34.08102417 C-759.20102627 -34.08283502 -750.26287017 -34.08046784 -741.32470703 -34.07568359 C-731.03635076 -34.07023974 -720.7480143 -34.07200893 -710.4596585 -34.07751 C-701.57412005 -34.08206819 -692.6885875 -34.08267859 -683.80304825 -34.08007133 C-678.51880006 -34.07852381 -673.23456114 -34.07827252 -667.95031357 -34.08160782 C-662.98100622 -34.08452623 -658.0117241 -34.08243899 -653.04241943 -34.07671356 C-651.23422411 -34.07540718 -649.4260266 -34.07574326 -647.61783218 -34.07797623 C-615.85365679 -34.11354397 -615.85365679 -34.11354397 -602.48046875 -31.1953125 C-601.64894287 -31.0197583 -600.81741699 -30.8442041 -599.96069336 -30.66333008 C-578.42741423 -25.91716023 -561.94207752 -15.69591528 -546.73046875 0.0546875 C-545.71201775 1.07789762 -544.69167361 2.09923379 -543.66796875 3.1171875 C-543.02859375 3.7565625 -542.38921875 4.3959375 -541.73046875 5.0546875 C-541.12203125 4.58160156 -540.51359375 4.10851562 -539.88671875 3.62109375 C-500.16486146 -26.34554271 -446.70595171 -38.66743814 -397.73046875 -32.19140625 C-355.74341092 -26.07073645 -319.39299395 -7.0056517 -288.73046875 22.0546875 C-285.42689888 18.77715726 -285.42689888 18.77715726 -282.203125 15.421875 C-246.49488143 -22.36357941 -192.67337173 -34.94955878 -142.6171875 -36.83203125 C-93.09067346 -38.1855194 -41.05972679 -29.39144806 0 0 Z " fill="#2563EB" transform="translate(1493.73046875,133.9453125)"/>
<path d="M0 0 C21.57340037 19.75629723 34.90041298 43.60165191 42 72 C42.33 37.02 42.66 2.04 43 -34 C78.01438051 -34.1209091 78.01438051 -34.1209091 92.80664062 -34.14648438 C102.97766717 -34.16421208 113.14861859 -34.18493079 123.31958008 -34.22631836 C130.73053038 -34.25646024 138.14141911 -34.27563102 145.55242902 -34.28226548 C149.46724764 -34.28613634 153.3818903 -34.2950662 157.29665184 -34.31719017 C197.97155477 -34.53809811 197.97155477 -34.53809811 217.3125 -28.3125 C218.12605957 -28.05831299 218.93961914 -27.80412598 219.77783203 -27.54223633 C253.09171223 -16.67080893 281.00071806 8.15020236 297.015625 39.05957031 C302.72618301 50.31639448 306.20312074 61.7507306 309 74 C309.24878906 75.051875 309.49757813 76.10375 309.75390625 77.1875 C313.12446365 94.53526397 312.07445977 113.85247217 308 131 C307.83902832 131.69319336 307.67805664 132.38638672 307.51220703 133.10058594 C303.52050042 149.67326216 296.16246972 165.32053875 286 179 C285.41089844 179.81082031 284.82179688 180.62164062 284.21484375 181.45703125 C262.57275053 209.89961236 231.99455564 227.11595967 197 233 C197 233.33 197 233.66 197 234 C198.16273438 234.20753906 199.32546875 234.41507812 200.5234375 234.62890625 C235.02066553 241.12711987 266.73126585 259.71628763 286.9375 288.9375 C307.09348209 319.35755125 316.16254642 355.45496868 309.41015625 391.79003906 C303.76884269 419.07737495 290.88376453 441.65052812 272 462 C271.47148437 462.59425781 270.94296875 463.18851563 270.3984375 463.80078125 C249.696447 486.04215053 216.10062066 499.91529295 186 501 C184.81148438 501.0515625 183.62296875 501.103125 182.3984375 501.15625 C151.35452433 502.05916855 120.59039675 493.2979754 96 474 C95.4647168 473.58137695 94.92943359 473.16275391 94.37792969 472.73144531 C66.32382217 450.56097604 49.67410775 420.10565851 44 385 C43.87995605 385.55236328 43.75991211 386.10472656 43.63623047 386.67382812 C35.23005331 424.8535302 17.21051615 457.78391636 -16.14257812 479.81396484 C-35.19066669 491.97690047 -58.28658183 500.18272558 -81 501 C-82.20011719 501.0515625 -83.40023437 501.103125 -84.63671875 501.15625 C-122.22899105 502.23635839 -156.52850864 488.06336619 -184.03125 462.90234375 C-205.85616175 441.81358974 -221.94538894 410.46014307 -223.12304783 379.79605961 C-223.12212604 378.69636058 -223.12120424 377.59666155 -223.12025452 376.46363831 C-223.12231651 374.55601967 -223.12231651 374.55601967 -223.12442017 372.60986328 C-223.12088196 371.21850562 -223.11724716 369.8271482 -223.11352539 368.43579102 C-223.11324303 366.9569448 -223.1134022 365.47809845 -223.1139679 363.99925232 C-223.11425398 359.99978201 -223.1083878 356.00034189 -223.10139394 352.00087857 C-223.09512893 347.81552361 -223.09455411 343.63016789 -223.09336853 339.44480896 C-223.09026449 331.52602514 -223.0820636 323.60725518 -223.07201904 315.68847746 C-223.05873544 304.98303265 -223.05335051 294.27758404 -223.04751682 283.57213306 C-223.03812308 266.714745 -223.01819797 249.85738618 -223 233 C-187.69 232.67 -152.38 232.34 -116 232 C-122.93 230.02 -129.86 228.04 -137 226 C-141.55128987 224.12102712 -145.69164925 222.28930815 -150 220 C-150.94866943 219.50693359 -150.94866943 219.50693359 -151.91650391 219.00390625 C-161.11630128 214.19597194 -169.21685225 208.93451793 -177 202 C-177.82757813 201.30390625 -178.65515625 200.6078125 -179.5078125 199.890625 C-203.53427969 179.25347137 -219.32792609 148.42041719 -223 117 C-223.31614396 111.66362976 -223.38944713 106.34329722 -223.375 101 C-223.37478851 100.27588928 -223.37457703 99.55177856 -223.37435913 98.8057251 C-223.33954581 86.82829439 -222.31264801 75.54663341 -219 64 C-218.72712158 63.00178223 -218.72712158 63.00178223 -218.44873047 61.98339844 C-213.27385012 43.4204228 -203.34819007 26.66049594 -191 12 C-190.37351563 11.23816406 -189.74703125 10.47632813 -189.1015625 9.69140625 C-183.9911077 3.67358499 -178.24112512 -1.18787732 -172 -6 C-171.15824219 -6.66902344 -170.31648438 -7.33804688 -169.44921875 -8.02734375 C-151.57304612 -21.72607998 -130.19973106 -29.86444477 -108 -33 C-106.70642578 -33.19529297 -106.70642578 -33.19529297 -105.38671875 -33.39453125 C-67.19341228 -38.20881358 -28.5493594 -25.41542704 0 0 Z M-89 -6 C-89 63.96 -89 133.92 -89 206 C-59.47588513 206 -34.5661308 194.81461649 -13.3125 174.75 C6.15768083 154.42398705 16.41300417 127.99286038 17.25 100 C16.38982422 69.69145333 4.00188213 41.96917062 -18 21 C-37.8258728 3.21502587 -62.52525672 -6 -89 -6 Z M71 -6 C71 63.96 71 133.92 71 206 C99.8646875 206.12375 99.8646875 206.12375 129.3125 206.25 C135.35216064 206.28641602 141.39182129 206.32283203 147.61450195 206.36035156 C153.10542608 206.37374261 153.10542608 206.37374261 158.59635925 206.3817749 C161.01138776 206.38785216 163.42640539 206.40178255 165.84135437 206.42230225 C184.19777493 206.57025807 201.93043501 205.95895616 218.9375 198.25 C219.7227002 197.90493408 220.50790039 197.55986816 221.31689453 197.2043457 C228.0545137 194.15281245 234.13716996 190.52483978 240 186 C240.52255371 185.59942383 241.04510742 185.19884766 241.58349609 184.78613281 C259.20702185 171.10739269 272.13123402 153.30535509 279 132 C279.21027832 131.34789551 279.42055664 130.69579102 279.63720703 130.02392578 C288.11034298 102.26987716 283.03533871 72.73575372 269.94921875 47.38671875 C266.77214877 41.86663925 263.02424559 36.92477607 259 32 C258.38640625 31.22140625 257.7728125 30.4428125 257.140625 29.640625 C240.19627978 9.22051666 213.94639743 -2.82169667 188 -6 C178.83265953 -6.6451421 169.63653509 -6.4702167 160.453125 -6.390625 C158.15023183 -6.38472588 155.84733324 -6.38065628 153.54443359 -6.37841797 C145.11287263 -6.35765472 136.68142734 -6.30181094 128.25 -6.25 C109.3575 -6.1675 90.465 -6.085 71 -6 Z M-196 261 C-196.061875 279.43875 -196.12375 297.8775 -196.1875 316.875 C-196.21481201 322.66272949 -196.24212402 328.45045898 -196.27026367 334.41357422 C-196.28030681 339.67432901 -196.28030681 339.67432901 -196.28633118 344.93508911 C-196.29088984 347.24931578 -196.30133914 349.56353606 -196.31672668 351.87771606 C-196.54098876 387.43205368 -189.02947481 416.99875891 -164.0625 443.3125 C-141.80753694 464.52496988 -113.89125356 474.00770551 -83.55859375 473.28125 C-60.74593655 472.35027946 -38.11714729 463.07459694 -21 448 C-20.18144531 447.32453125 -19.36289063 446.6490625 -18.51953125 445.953125 C2.46676501 428.1229074 14.16698452 401.85155777 16.79391289 374.76596451 C17.14387458 370.06901077 17.13039862 365.38308677 17.11352539 360.67529297 C17.11364593 359.57383501 17.11376646 358.47237705 17.11389065 357.33754158 C17.11314993 353.80573566 17.10556032 350.27398387 17.09765625 346.7421875 C17.09618422 344.54825872 17.09516512 342.35432959 17.09460449 340.16040039 C17.08938182 332.06526154 17.07542056 323.97013023 17.0625 315.875 C17.041875 297.76625 17.02125 279.6575 17 261 C-53.29 261 -123.58 261 -196 261 Z M96.47363281 297.32373047 C79.86561444 316.21548895 71 341.04564352 71 366 C140.96 366 210.92 366 283 366 C283 357.37953455 282.99040395 350.73891585 280.9375 342.6875 C280.71489502 341.79232666 280.49229004 340.89715332 280.26293945 339.97485352 C272.97400737 312.079094 254.49969497 288.64945735 229.73413086 274.07470703 C184.9253293 248.84926695 130.66504131 260.13550794 96.47363281 297.32373047 Z " fill="#2462EB" transform="translate(223,79)"/>
<path d="M0 0 C4.65399328 3.57365107 8.97545349 7.44213306 13.2109375 11.5 C14.09265625 12.30695313 14.974375 13.11390625 15.8828125 13.9453125 C28.00095321 25.41304453 36.48374207 39.32603726 43.2109375 54.5 C43.51483398 55.18223633 43.81873047 55.86447266 44.13183594 56.56738281 C48.06007068 65.56836467 51.01033027 74.74367968 53.4609375 84.25 C53.69506348 85.14009766 53.92918945 86.03019531 54.17041016 86.94726562 C59.11185068 107.16643588 59.68504707 127.40821685 59.53755188 148.11343384 C59.52325458 150.27768972 59.51412758 152.44191222 59.50646973 154.60620117 C59.15591754 248.64025009 59.15591754 248.64025009 41.140625 268.77734375 C29.9459384 278.77098098 16.66419577 280.28053607 2.2578125 279.62988281 C-11.42396223 278.76171676 -24.94386533 276.07720395 -34.5390625 265.6875 C-47.35426605 250.06988292 -43.7890625 231.25905002 -43.7890625 211.5 C-68.2090625 211.5 -92.6290625 211.5 -117.7890625 211.5 C-117.7890625 223.05 -117.7890625 234.6 -117.7890625 246.5 C-121.3746806 258.45206033 -124.81134023 267.00686774 -135.7890625 273.5 C-151.05495455 280.81204139 -172.06972537 282.38550631 -188.31640625 277.47265625 C-198.41300058 273.50101014 -205.18181579 266.68135304 -209.74609375 256.9296875 C-210.09027344 256.12789063 -210.43445313 255.32609375 -210.7890625 254.5 C-211.13324219 253.73945313 -211.47742188 252.97890625 -211.83203125 252.1953125 C-213.07456041 248.69594466 -213.68744697 245.15100058 -214.2890625 241.5 C-214.48133423 240.36026733 -214.48133423 240.36026733 -214.67749023 239.19750977 C-214.93457863 237.66482394 -215.18910016 236.13170512 -215.44091797 234.59814453 C-215.73213839 232.84306156 -216.04159943 231.09101811 -216.35546875 229.33984375 C-217.56566371 222.25972676 -218.24023163 215.1519445 -218.8515625 208 C-218.93092041 207.08210693 -219.01027832 206.16421387 -219.09204102 205.21850586 C-224.23839499 141.49787702 -225.30815903 71.94667389 -181.7890625 20.5 C-167.03813011 3.17903221 -150.74464178 -8.03886693 -129.7890625 -16.5 C-128.30986328 -17.11488281 -128.30986328 -17.11488281 -126.80078125 -17.7421875 C-84.81625892 -34.17922356 -35.79543791 -26.75597969 0 0 Z " fill="#FEFEFE" transform="translate(1148.7890625,185.5)"/>
<path d="M0 0 C1.90942383 -0.01836914 1.90942383 -0.01836914 3.85742188 -0.03710938 C19.05994917 -0.06053392 35.48723654 2.17343705 46.9375 13.1875 C55.77797367 22.4082091 56.5128203 35.00755645 56.4233551 47.1014328 C56.40584116 49.54133161 56.41373215 51.98007188 56.4276123 54.41998291 C56.45273842 59.59257129 56.44748181 64.76487564 56.4375 69.9375 C56.42592691 75.95257978 56.42724051 81.96708572 56.46156311 87.98209381 C56.46860621 90.37306204 56.45205471 92.76309733 56.43444824 95.1539917 C56.43622898 102.68007518 56.52741599 108.77501326 60.9375 115.1875 C63.04815654 117.08838051 63.04815654 117.08838051 65.4375 118.125 C66.1903125 118.50527344 66.943125 118.88554687 67.71875 119.27734375 C75.96165367 122.65867571 87.28267339 122.6205083 95.625 119.5 C102.58410363 116.15450127 106.19030509 111.22126628 108.9375 104.1875 C113.56003585 90.7907063 113.89341809 76.09560463 114.140625 62.05859375 C114.15620453 61.2505983 114.17178406 60.44260284 114.18783569 59.61012268 C114.26353535 55.54709761 114.31665903 51.48582016 114.33251953 47.42211914 C114.47905446 33.41350872 116.59996564 21.44165902 126.890625 11.25390625 C138.34555042 0.73898425 152.09839813 -0.31463405 167.125 -0.125 C169.05762695 -0.12983398 169.05762695 -0.12983398 171.02929688 -0.13476562 C183.09393939 -0.06702133 196.21966747 1.11745288 206.078125 8.87109375 C217.42743939 20.73852901 218.30889366 37.27690838 218.1875 52.75 C218.18406586 53.46225739 218.18063171 54.17451477 218.17709351 54.90835571 C217.99435795 87.19450939 212.01330199 119.83096491 189.125 144.0703125 C181.48194272 151.46770008 173.31470167 155.96381393 162.9375 158.1875 C163.59234375 158.33445312 164.2471875 158.48140625 164.921875 158.6328125 C183.78826232 163.26946701 200.25873384 175.31900794 210.4375 191.9375 C218.96849729 206.32452085 220.45911121 220.09393094 220.38354492 236.49609375 C220.3750767 239.28722038 220.40382065 242.07626375 220.43554688 244.8671875 C220.50131369 262.01623865 219.35064415 282.27815999 206.95703125 295.40234375 C194.74046409 306.20112749 175.75589236 306.05058998 160.35107422 305.3515625 C148.05514279 304.51574762 136.24685083 300.46247852 126.9375 292.1875 C125.2421875 289.99609375 125.2421875 289.99609375 123.8125 287.625 C123.09707031 286.47837891 123.09707031 286.47837891 122.3671875 285.30859375 C117.30902692 274.26632517 117.30669205 262.98396893 116.9375 251.0625 C116.83232171 222.53786565 116.83232171 222.53786565 105.9375 197.1875 C99.66983597 191.81735349 94.06412303 189.9025872 85.79296875 189.7734375 C85.02318192 189.75407135 84.25339508 189.7347052 83.46028137 189.7147522 C81.01529829 189.65524377 78.57026738 189.60868705 76.125 189.5625 C74.46156866 189.52429369 72.79815653 189.48524043 71.13476562 189.4453125 C67.06916759 189.34956617 63.00347699 189.26542991 58.9375 189.1875 C58.94194122 189.8889061 58.94638245 190.59031219 58.95095825 191.31297302 C58.99144568 198.00350427 59.02168928 204.69400011 59.04112434 211.38462734 C59.05145274 214.82230904 59.06540485 218.25988747 59.08837891 221.69750977 C59.42928746 274.14100508 59.42928746 274.14100508 44.0625 291.875 C36.38871895 298.95060212 24.33482233 304.5195156 13.9375 305.1875 C13.30650391 305.22842773 12.67550781 305.26935547 12.02539062 305.31152344 C-3.4042464 306.16558843 -18.81038754 304.53099193 -31.0625 294.1875 C-44.39810442 280.97890134 -46.32257327 261.27579967 -46.47280991 243.44792175 C-46.48042803 240.59280573 -46.47371481 237.73792673 -46.46655273 234.8828125 C-46.47226949 232.79953651 -46.47923874 230.71626365 -46.48735046 228.63299561 C-46.50515047 223.02555573 -46.50413875 217.41827344 -46.49840808 211.8108139 C-46.49529777 207.109311 -46.50142885 202.40783757 -46.50744683 197.70633888 C-46.52144655 186.60693489 -46.51996816 175.50760795 -46.50854492 164.40820312 C-46.49706164 152.9990702 -46.5111535 141.5901723 -46.5379414 130.18107033 C-46.56016508 120.34358388 -46.56672098 110.50617086 -46.56086498 100.66866112 C-46.55751094 94.81145973 -46.55980686 88.95440901 -46.57711601 83.097229 C-46.59269038 77.58778364 -46.58851418 72.07868423 -46.56981087 66.56925201 C-46.56615421 64.56068229 -46.56914684 62.5520863 -46.57969666 60.54354095 C-46.66805841 42.31333873 -45.20935863 23.1097771 -32.2265625 9.01171875 C-22.31898581 0.66002504 -12.33175283 0.00611391 0 0 Z " fill="#FEFEFE" transform="translate(1579.0625,159.8125)"/>
<path d="M0 0 C3.26222121 0.00316248 6.52353436 -0.02040273 9.78564453 -0.0456543 C50.01477013 -0.1661099 90.02185928 11.8695707 119.39892578 40.31567383 C126.79934342 47.6836335 131.5145908 56.6164618 131.64892578 67.12817383 C131.67470703 68.33086914 131.70048828 69.53356445 131.72705078 70.77270508 C131.13491814 77.16632773 128.19549842 81.20432585 123.39892578 85.31567383 C115.81714309 88.94728402 107.83206421 88.09026411 100.02392578 85.50317383 C92.84535938 82.71675661 86.06146739 79.18984505 79.20922852 75.69091797 C68.52283035 70.27743154 57.57588742 65.61698831 46.39892578 61.31567383 C45.62742187 61.01338867 44.85591797 60.71110352 44.06103516 60.3996582 C35.19490913 57.01939723 26.89030762 55.86939175 17.39892578 55.75317383 C16.44300537 55.73818848 15.48708496 55.72320312 14.50219727 55.70776367 C7.0011541 55.81931798 0.45312463 57.33978777 -5.03857422 62.69067383 C-8.41544786 68.36382155 -9.4813781 73.79927805 -8.60107422 80.31567383 C-1.39932441 103.14596318 29.34240626 114.01484729 48.69017029 124.23536682 C91.94673324 147.08756904 91.94673324 147.08756904 110.39892578 162.31567383 C111.23085449 162.99509033 111.23085449 162.99509033 112.07958984 163.68823242 C126.59419603 175.70881604 136.75556274 191.41975831 139.39892578 210.31567383 C141.18709692 233.53324201 136.60131301 258.13052061 121.22314453 276.30786133 C120.62115234 276.97043945 120.01916016 277.63301758 119.39892578 278.31567383 C118.74537109 279.06075195 118.09181641 279.80583008 117.41845703 280.57348633 C103.33300406 295.71085838 82.97234453 302.54534345 63.39892578 307.31567383 C62.04927734 307.65211914 62.04927734 307.65211914 60.67236328 307.99536133 C58.25477766 308.53537186 55.84810759 308.94360049 53.39892578 309.31567383 C52.29806641 309.50000977 51.19720703 309.6843457 50.06298828 309.87426758 C19.89770134 314.35644568 -14.3613222 312.95652683 -43.60107422 304.31567383 C-44.50003418 304.05157715 -45.39899414 303.78748047 -46.32519531 303.51538086 C-74.13479193 295.17111808 -107.14088676 280.80367096 -123.60107422 255.31567383 C-128.29541826 246.38583141 -131.8538356 237.68451947 -128.76513672 227.58129883 C-126.01585564 221.49228705 -122.41255944 217.61046984 -116.60107422 214.31567383 C-99.39582926 208.58059218 -79.93799414 217.45382984 -63.57720947 222.68572998 C-58.76221114 224.22063432 -53.9322181 225.70753014 -49.10107422 227.19067383 C-48.19180176 227.47064209 -47.2825293 227.75061035 -46.34570312 228.0390625 C-34.7840617 231.5469913 -22.73081364 234.88246885 -10.60107422 235.31567383 C-9.32232422 235.36723633 -8.04357422 235.41879883 -6.72607422 235.47192383 C5.39327902 235.81945174 5.39327902 235.81945174 15.89892578 230.25317383 C18.1337899 225.87656492 18.21557576 222.1272872 17.39892578 217.31567383 C13.51573411 206.42712632 0.68106501 201.15867531 -8.85107422 196.12817383 C-10.98148669 194.98923267 -13.11169061 193.84990134 -15.24169922 192.71020508 C-16.30710937 192.14253418 -17.37251953 191.57486328 -18.47021484 190.98999023 C-23.19709572 188.46215578 -27.89932763 185.88986939 -32.60107422 183.31567383 C-38.30416529 180.19442241 -44.01464117 177.08916528 -49.74951172 174.02661133 C-81.48692825 157.0516501 -81.48692825 157.0516501 -94.60107422 145.31567383 C-95.29330078 144.70594727 -95.98552734 144.0962207 -96.69873047 143.46801758 C-112.14937999 129.00031196 -123.53784668 107.6061938 -124.83935547 86.44067383 C-125.34102812 67.8922235 -119.88684234 50.75475928 -107.28857422 36.94067383 C-98.23870702 27.47391316 -88.2088809 20.25688075 -76.60107422 14.31567383 C-75.55822266 13.78071289 -74.51537109 13.24575195 -73.44091797 12.69458008 C-66.10552096 9.26307601 -58.61621279 7.07582224 -50.78857422 5.06567383 C-49.36762451 4.69611572 -49.36762451 4.69611572 -47.91796875 4.3190918 C-32.0500184 0.4516631 -16.25931737 -0.03286432 0 0 Z " fill="#FEFEFE" transform="translate(1358.60107421875,156.684326171875)"/>
<path d="M0 0 C0.93473145 0.21809326 1.86946289 0.43618652 2.83251953 0.66088867 C30.50341063 7.3676413 62.84018565 20.47880769 79 45.37890625 C83.41406856 53.04355247 85.71314104 59.95852946 84.4375 68.875 C82.67240197 75.27100128 79.89239167 79.16103121 74.4375 82.875 C62.25503209 86.93582264 52.15955366 82.23495441 41.4375 76.875 C37.35971209 74.88434097 33.27398532 72.9102327 29.1875 70.9375 C28.12031738 70.42034424 27.05313477 69.90318848 25.95361328 69.37036133 C19.21761729 66.13094014 12.44072179 63.08706084 5.5 60.3125 C4.72688477 60.00256104 3.95376953 59.69262207 3.15722656 59.37329102 C-8.21291058 54.93468793 -18.7792747 52.69278492 -31 52.5625 C-31.90298828 52.53349609 -32.80597656 52.50449219 -33.73632812 52.47460938 C-40.49394839 52.41099673 -46.14140017 53.54437996 -51.12255859 58.39379883 C-55.76441208 63.80655213 -55.92397071 67.51331696 -55.82421875 74.48828125 C-55.26131616 81.77240885 -52.59303414 86.21864169 -47.375 91.25 C-32.71649291 103.53259856 -15.37836972 112.00329508 1.4375 120.875 C25.96985406 133.82717302 50.09905571 146.74337439 70.4375 165.875 C71.06269531 166.43574219 71.68789062 166.99648438 72.33203125 167.57421875 C83.19611273 177.70258365 90.73385786 191.95869909 91.61450195 206.87255859 C92.1566234 234.74753621 92.1566234 234.74753621 87.4375 247.875 C87.05207031 248.95523438 86.66664063 250.03546875 86.26953125 251.1484375 C77.38923404 273.96706529 61.21147277 287.04818975 39.4375 296.875 C27.8918967 301.93792117 15.84380464 304.03353885 3.4375 305.875 C2.24455322 306.05450195 1.05160645 306.23400391 -0.17749023 306.41894531 C-10.43187311 307.84123922 -20.52855441 308.27361393 -30.875 308.25 C-31.69688812 308.25012085 -32.51877625 308.2502417 -33.36557007 308.25036621 C-48.38972489 308.21914342 -62.8062755 306.84188754 -77.5625 303.875 C-78.79516602 303.63475098 -78.79516602 303.63475098 -80.05273438 303.38964844 C-108.55347436 297.70639334 -136.89656514 285.55518633 -158.5625 265.875 C-159.36042969 265.16988281 -160.15835937 264.46476562 -160.98046875 263.73828125 C-168.40679579 256.80953056 -175.83034234 247.00076697 -176.8984375 236.60546875 C-176.9896634 228.33128003 -176.74060264 222.29071985 -170.9140625 216.1328125 C-164.14496427 209.95490189 -157.23905875 208.97386248 -148.32421875 209.2265625 C-136.16125934 210.17240095 -124.08660964 215.06818602 -112.5625 218.875 C-74.61841533 232.14277971 -74.61841533 232.14277971 -35.41015625 229.921875 C-32.03769096 228.011049 -30.76189098 225.47317295 -29.5625 221.875 C-28.92444921 216.4515683 -29.87657613 213.21147468 -32.9140625 208.83984375 C-39.84527812 200.57822892 -50.22689022 195.91176248 -59.5625 190.875 C-60.51398926 190.36018066 -61.46547852 189.84536133 -62.44580078 189.31494141 C-72.23892974 184.01981035 -82.04694336 178.75247036 -91.8671875 173.5078125 C-128.97767924 153.63205607 -128.97767924 153.63205607 -139.5625 143.875 C-140.3052417 143.20162598 -140.3052417 143.20162598 -141.06298828 142.51464844 C-152.10782534 132.40042583 -160.42952133 121.25014888 -166.5625 107.5625 C-166.8414209 106.94141357 -167.1203418 106.32032715 -167.40771484 105.68041992 C-174.10327447 89.74230475 -173.70360065 69.86744961 -167.5625 53.875 C-163.29465554 43.82005122 -157.21849832 36.44593167 -149.5625 28.875 C-148.758125 28.0603125 -147.95375 27.245625 -147.125 26.40625 C-140.67759083 20.21334383 -133.448112 15.93196296 -125.5625 11.875 C-124.510625 11.3284375 -123.45875 10.781875 -122.375 10.21875 C-87.56566793 -6.83782272 -37.43079958 -8.82102628 0 0 Z " fill="#FEFEFE" transform="translate(2004.5625,160.125)"/>
<path d="M0 0 C0.85520904 -0.00226556 1.71041808 -0.00453111 2.59154254 -0.00686532 C5.4384685 -0.01316221 8.28534632 -0.01237874 11.13227844 -0.0115509 C13.18130555 -0.01454512 15.2303321 -0.01794825 17.27935791 -0.02172852 C22.83330195 -0.03054682 28.38723058 -0.03290574 33.94118094 -0.0335443 C37.41547858 -0.03425613 40.88977232 -0.03639299 44.36406898 -0.03904152 C56.49741997 -0.04828835 68.63075999 -0.05237731 80.76411438 -0.05158997 C92.05321457 -0.05098962 103.3422669 -0.0615347 114.63135499 -0.07733363 C124.34034629 -0.09043438 134.049322 -0.09577279 143.75832206 -0.09513456 C149.54953782 -0.09488028 155.34071104 -0.09769251 161.13191795 -0.10831261 C166.58286338 -0.11803608 172.033726 -0.11804374 177.48467445 -0.11079597 C179.47718045 -0.10975535 181.46969171 -0.11208178 183.46218872 -0.11815643 C216.79840193 -0.21314954 216.79840193 -0.21314954 229.5905304 9.44621277 C239.74424774 20.0952334 239.87417118 32.26468577 239.5905304 46.30168152 C239.12567446 55.4288372 235.97255474 61.71106803 229.4030304 68.13371277 C213.44140173 80.4486772 190.01041227 78.53763316 171.0280304 78.32121277 C168.70121623 78.30612466 166.3743925 78.29244362 164.04756165 78.28019714 C158.41583814 78.24755133 152.78448077 78.19768564 147.1530304 78.13371277 C147.15487398 79.01663529 147.15671757 79.89955782 147.15861702 80.80923557 C147.20288737 102.34510725 147.23593126 123.88097102 147.25665474 145.4168787 C147.26694418 155.8317027 147.28095967 166.24649623 147.3039093 176.66130066 C147.32391485 185.74441771 147.33676376 194.82751268 147.34120739 203.91065115 C147.34380268 208.71501904 147.34985358 213.51932379 147.36449051 218.32367134 C147.37818792 222.85688626 147.38222878 227.39001274 147.37924576 231.92324638 C147.37979053 233.57627215 147.38369489 235.22930125 147.39144135 236.88230896 C147.48315948 257.48567726 145.83284428 278.76938254 131.5358429 294.96574402 C120.43612486 305.45471202 105.15918099 306.71166264 90.6686554 306.38371277 C80.6359404 305.95823715 71.46926263 303.87825873 63.1530304 298.13371277 C62.55232727 297.77277527 61.95162415 297.41183777 61.3327179 297.03996277 C52.54839091 290.89487304 48.30952911 278.32012123 46.2155304 268.25871277 C45.80853228 265.8921939 45.45768655 263.51556996 45.1530304 261.13371277 C45.06692788 260.49122904 44.98082537 259.84874531 44.89211369 259.18679237 C43.9036513 250.81586947 44.02001887 242.43948226 44.039505 234.02580261 C44.03978749 232.3100637 44.03962794 230.59432466 44.0390625 228.87858582 C44.03877694 224.24708357 44.04463463 219.6156075 44.05163646 214.98411131 C44.0579102 210.13412835 44.05847697 205.28414472 44.05966187 200.43415833 C44.06276336 191.26175007 44.07096076 182.08935381 44.08101135 172.91695082 C44.09220926 162.46951909 44.0976922 152.02208677 44.10270679 141.57465053 C44.11314441 120.09433126 44.13072088 98.61402277 44.1530304 77.13371277 C43.45971115 77.14259521 42.76639191 77.15147766 42.05206299 77.16062927 C35.449267 77.24149402 28.84661347 77.30203638 22.24343014 77.34096146 C18.85036668 77.36164756 15.45771956 77.38960625 12.06489563 77.43547058 C-26.21523782 77.91494177 -26.21523782 77.91494177 -40.5969696 65.82121277 C-50.33826274 54.1857793 -50.90751285 42.55545754 -50.13261414 27.82023621 C-49.34286521 20.39254634 -45.78784614 14.61220306 -40.3469696 9.57121277 C-35.4137486 5.6899286 -30.07464047 3.74555698 -23.9719696 2.50871277 C-22.24333679 2.14906433 -22.24333679 2.14906433 -20.4797821 1.78215027 C-13.58806038 0.55201499 -6.98401215 -0.0137789 0 0 Z " fill="#FDFEFE" transform="translate(668.8469696044922,158.8662872314453)"/>
<path d="M0 0 C0.74693115 0.00563965 1.4938623 0.0112793 2.26342773 0.01708984 C11.79790947 0.22586657 19.82344719 2.35968789 26.6875 9.3125 C36.37038558 21.28162246 37.29338664 36.39325937 37.078125 51.08984375 C37.07221994 52.46455226 37.06815403 53.83926989 37.06591797 55.21398926 C37.04522339 60.22613291 36.98938107 65.23808214 36.9375 70.25 C36.855 81.490625 36.7725 92.73125 36.6875 104.3125 C12.2675 104.3125 -12.1525 104.3125 -37.3125 104.3125 C-37.374375 93.525625 -37.43625 82.73875 -37.5 71.625 C-37.52731201 68.24548096 -37.55462402 64.86596191 -37.58276367 61.3840332 C-37.59153553 58.66878617 -37.59917781 55.95353516 -37.60546875 53.23828125 C-37.61330887 52.55162888 -37.62114899 51.8649765 -37.62922668 51.15751648 C-37.79262653 36.06434624 -36.05068491 19.46343957 -25.234375 8 C-18.21112829 1.83324679 -9.12631309 -0.07221001 0 0 Z " fill="#2764EB" transform="translate(1068.3125,231.6875)"/>
</svg>
